<svg height="275.680975" viewBox="0 0 49.909088 37.886003" width="362.738125" xmlns="http://www.w3.org/2000/svg" xmlns:xlink="http://www.w3.org/1999/xlink"><clipPath id="a"><path d="m-8.395001 2.188h69.227997v37.386002h-69.227997z"/></clipPath><path clip-path="url(#a)" d="m37.629 24.964c.231.091.45.105.629.087l.213-.041c-.854 2.598-2.082 5.126-3.259 5.372-.258.054-.598-.001-.914-.233 1.994-2.598 2.735-3.949 3.331-5.185m6.478-21.399-.224.104-.106.222c-.435.905-1.454 2.985-2.192 4.34-.569-1.175-1.605-3.319-1.605-3.319l-.493.064c-.289.038-2.856.392-3.92 1.198-.564.426-.946 1.304-1.708 3.053-.809 1.854-1.989 4.555-3.871 7.638-2.427-5.653-6.649-9.055-11.896-9.266-1.072-.042-1.671.427-1.788 1.048l-.021.239c0 .495.162.991 1.004 1.283 6.046 2.093 7.856 5.919 8.987 11.957-.909 1.317-4.157 5.608-8.959 7.401-2.454.916-5.16.684-7.24-.623-1.769-1.111-2.848-2.879-3.039-4.975-.038-.424-.064-.862-.064-1.307 0-2.583.865-5.407 5.098-7.046.886-.343 1.712-.454 2.44-.552l.058-.007c1.91-.051 2.995.115 3.804.419.563.219 1.155.478 1.282.535 0 0 .321.13.547.13.688 0 .974-.423.974-1.112 0-.361-.155-.712-.426-.964-3.544-3.3-9.188-3.061-12.619-1.283-4.249 2.2-6.598 5.89-6.614 10.389-.02 5.379 3.419 10.813 8.556 13.521 2.766 1.457 5.929 2.076 9.146 1.791 3.438-.307 6.924-1.62 10.372-3.885 2.471 3.756 6.799 5.717 10.76 4.801 2.44-.566 4.582-2.099 6.193-4.434 1.992-2.885 3.33-8.429 3.978-16.476.25-3.103.343-5.974.375-7.836.02-1.108.029-1.868.029-2.396 0-.579-.012-.878-.039-1.052l.017.039c-.006-.039-.523-3.975-1.771-4.788-.901-.583-2.524-.02-5.025 1.149" fill="#b0b6bb" transform="translate(-1.265913 -1.938)"/><path clip-path="url(#a)" d="m35.215 30.919c-.625.131-1.416-.087-1.966-.858 2.69-3.442 3.251-4.752 3.994-6.32 1.175 1.706 2.555-1.588 2.555-1.588s-1.787 8.181-4.583 8.766m14.862-23.768c-.141-1.134-.738-3.822-1.463-4.295-.725-.471-2.966.547-4.354 1.195 0 0-2.122 4.424-2.874 5.501-.463-.949-1.95-4.03-1.95-4.03s-2.644.345-3.593 1.064c-.42.317-.801 1.192-1.492 2.779-.933 2.141-2.328 5.32-4.639 8.878-2.439-6.564-6.446-10.011-11.926-10.23-.706-.029-1.025.318-1.082.624l-.011.111c0 .267.174.594.679.769 6.42 2.223 8.319 6.162 9.493 12.621-1.06 1.598-4.502 6.049-9.45 7.898s-10.71-.74-11.206-6.183c-.275-3.007.118-6.985 5.47-9.058 1.005-.389 1.938-.503 2.695-.605 2.093-.059 3.291.296 4.099.601.576.223 1.167.482 1.322.551.1.04.168.069.264.069.31 0 .561-.25.561-.56 0-.167-.071-.334-.206-.459-3.734-3.477-9.003-2.785-12.108-1.176-15.566 8.063.401 34.706 21.358 20.242 2.321 4.043 6.608 5.967 10.39 5.091 2.251-.521 4.262-1.949 5.781-4.152 4.633-6.713 4.242-27.246 4.242-27.246" fill="#010101" transform="translate(-1.265913 -1.938)"/><path clip-path="url(#a)" d="m17.599 8.854.157.085c4.301 1.306 8.41 3.423 11.611 10.522-1.836-5.497-5.252-10.495-11.61-10.749-.18-.007-.197.096-.158.142" fill="#98002e" transform="translate(-1.265913 -1.938)"/><path clip-path="url(#a)" d="m8.336 29.278c3.965 5.377 15.402 3.914 19.533-2.196-.241-1.407-.551-2.638-.81-4.013-10.648 13.629-18.707 6.238-18.723 6.209" fill="#fff" transform="translate(-1.265913 -1.938)"/><path clip-path="url(#a)" d="m19.588 14.735s.245.131.316.038c.103-.135-.162-.338-.305-.442-.866-.636-5.277-3.238-11.021-.466-4.96 2.394-5.552 6.955-5.552 6.955s1.457-4.863 6.894-6.69c5.438-1.828 9.668.605 9.668.605" fill="#98002e" transform="translate(-1.265913 -1.938)"/><path clip-path="url(#a)" d="m46.18 19.229c.605-3.589 1.537-13.799 1.711-15.732-1.088.093-3.182 1.115-3.182 1.115s-4.51 9.627-5.316 9.864-.319-8.199-.319-8.199-1.903.155-2.786.833c-.859.659-2.515 6.304-6.21 11.923.246.676.791 2.502 1.18 3.844.921-1.278 1.794-2.663 2.608-4.153.386-.747.442-1.446.24-1.536-.203-.09-.604.371-.896 1.03-.053.121-.099.24-.138.355.193-2.376 1.428-2.963 1.428-2.963s.27 1.51.432 2.265c.445 2.079 1.147 5.015 1.771 4.62 2.494-1.579 6.016-9.159 6.016-9.159s2.287 1.755-.127 5.266c.091-.191.174-.407.242-.641.26-.89.219-1.707-.105-1.78-.636-.144-1.087 1.582-1.103 1.65-.154.513-.326 1.209-.514 2.128l-.001.003c-.994 5.463-3.144 13.341-7.118 11.71 0 0 7.211 7.411 11.128-7.159-1.13 8.222-3.861 10.55-6.666 10.671 9.224 1.818 10.581-16.432 10.701-26.694-.552-5.259-1.648 6.524-2.976 10.739" fill="#fff" transform="translate(-1.265913 -1.938)"/><path clip-path="url(#a)" d="m44.427 28.156c-1.348 5.304-3.727 6.931-5.973 7.028 4.728.998 7.905-3.41 9.417-11.683-1.082 1.769-1.79 3.238-3.444 4.655" fill="#98002e" transform="translate(-1.265913 -1.938)"/><path clip-path="url(#a)" d="m41.573 29.039c.039-.776-.08-1.993-.08-1.993-1.156 1.954-2.842 3.109-2.842 3.109.111-.891.117-1.896.117-1.896-1.169 2.572-2.73 4.251-4.776 3.412 0 0 7.211 7.411 11.128-7.159-.644 2.064-3.547 4.527-3.547 4.527" fill="#98002e" transform="translate(-1.265913 -1.938)"/><path clip-path="url(#a)" d="m37.745 7.067c.166-.111.725-.14.725-.14s-.299 6.135.214 7.398c0 .001-.911-1.185-.939-7.258" fill="#b0b6bb" transform="translate(-1.265913 -1.938)"/><path clip-path="url(#a)" d="m45.979 25.209s1.69-10.193 2.519-13.616c0 0-.491 7.939-1.397 11.843 0 .001-.666 1.227-1.122 1.773" fill="#b0b6bb" transform="translate(-1.265913 -1.938)"/><g fill="#98002e"><path clip-path="url(#a)" d="m33.634 19.14c.077-.138.155-.276.231-.416.386-.747.442-1.446.24-1.536-.164-.073-.455.212-.716.669.051.088.309.595.245 1.283" transform="translate(-1.265913 -1.938)"/><path clip-path="url(#a)" d="m42.916 17.636c.163-.756.096-1.392-.188-1.456-.636-.144-1.087 1.582-1.103 1.65-.106.353-.22.795-.343 1.334.706-1.049 1.336-1.409 1.634-1.528" transform="translate(-1.265913 -1.938)"/><path clip-path="url(#a)" d="m22.623 28.867c-3.076 1.891-5.722 2.241-6.842 2.298-4.569.762-7.437-1.87-7.445-1.887 3.611 4.897 13.421 4.121 18.263-.674-1.939 1.227-5.182 2.162-5.182 2.162.816-.91 1.206-1.899 1.206-1.899" transform="translate(-1.265913 -1.938)"/></g></svg>